<svg width="15" height="15" viewBox="0 0 15 15" fill="none" xmlns="http://www.w3.org/2000/svg">
<path d="M1 7.5C1 7.88606 1.32303 8.20121 1.70121 8.20121H6.79879V13.2988C6.79879 13.677 7.11394 14 7.5 14C7.88606 14 8.20909 13.677 8.20909 13.2988V8.20121H13.2988C13.677 8.20121 14 7.88606 14 7.5C14 7.11394 13.677 6.79091 13.2988 6.79091H8.20909V1.70121C8.20909 1.32303 7.88606 1 7.5 1C7.11394 1 6.79879 1.32303 6.79879 1.70121V6.79091H1.70121C1.32303 6.79091 1 7.11394 1 7.5Z" fill="currentColor"/>
</svg>
