<svg width="15" height="15" viewBox="0 0 15 15" fill="none" xmlns="http://www.w3.org/2000/svg">
<g clip-path="url(#clip0_1_3)">
<path d="M1 5.33333H14M5.33333 9.66667L6.77778 11.1111L9.66667 8.22222M3.88889 1V2.44445M11.1111 1V2.44445M3.31111 14H11.6889C12.4978 14 12.9024 14 13.2113 13.8425C13.4831 13.7041 13.7041 13.4831 13.8425 13.2113C14 12.9024 14 12.4978 14 11.6889V4.75555C14 3.94659 14 3.54211 13.8425 3.23312C13.7041 2.96133 13.4831 2.74036 13.2113 2.60188C12.9024 2.44445 12.4978 2.44445 11.6889 2.44445H3.31111C2.50215 2.44445 2.09766 2.44445 1.78868 2.60188C1.51689 2.74036 1.29591 2.96133 1.15744 3.23312C1 3.54211 1 3.94659 1 4.75555V11.6889C1 12.4978 1 12.9024 1.15744 13.2113C1.29591 13.4831 1.51689 13.7041 1.78868 13.8425C2.09766 14 2.50214 14 3.31111 14Z" stroke="currentColor" stroke-width="1.2" stroke-linecap="round" stroke-linejoin="round"/>
</g>
<defs>
<clipPath id="clip0_1_3">
<rect width="15" height="15" fill="none"/>
</clipPath>
</defs>
</svg>
