<svg width="15" height="15" viewBox="0 0 15 15" fill="none" xmlns="http://www.w3.org/2000/svg">
<g clip-path="url(#clip0_6_5)">
<path d="M7.5 10.3C8.55587 10.3 9.41176 9.4046 9.41176 8.3C9.41176 7.1954 8.55587 6.3 7.5 6.3C6.44413 6.3 5.58823 7.1954 5.58823 8.3C5.58823 9.4046 6.44413 10.3 7.5 10.3Z" stroke="currentColor" stroke-width="1.5" stroke-linecap="round" stroke-linejoin="round"/>
<path d="M1.76471 10.7005V5.63386C1.76471 4.88712 1.76471 4.51374 1.90363 4.22854C2.02581 3.97765 2.22079 3.77367 2.46061 3.64585C2.73323 3.50052 3.09014 3.50052 3.80393 3.50052H4.476C4.55434 3.50052 4.59352 3.50052 4.62966 3.49618C4.81822 3.47359 4.98734 3.36425 5.09098 3.19791C5.11085 3.16603 5.12837 3.12938 5.1634 3.05607C5.23348 2.90946 5.26851 2.83616 5.30824 2.7724C5.51553 2.43974 5.85377 2.22104 6.23091 2.17585C6.30318 2.16719 6.38149 2.16719 6.53819 2.16719H8.46181C8.61852 2.16719 8.69684 2.16719 8.76911 2.17585C9.14619 2.22104 9.48449 2.43974 9.6918 2.7724C9.73149 2.83615 9.76652 2.90949 9.83664 3.05607C9.87159 3.12938 9.8891 3.16603 9.90898 3.19791C10.0127 3.36425 10.1818 3.47359 10.3703 3.49618C10.4065 3.50052 10.4457 3.50052 10.524 3.50052H11.1961C11.9098 3.50052 12.2668 3.50052 12.5394 3.64585C12.7792 3.77367 12.9742 3.97765 13.0964 4.22854C13.2353 4.51374 13.2353 4.88712 13.2353 5.63386V10.7005C13.2353 11.4473 13.2353 11.8206 13.0964 12.1058C12.9742 12.3567 12.7792 12.5607 12.5394 12.6885C12.2668 12.8338 11.9098 12.8338 11.1961 12.8338H3.80393C3.09014 12.8338 2.73323 12.8338 2.46061 12.6885C2.22079 12.5607 2.02581 12.3567 1.90363 12.1058C1.76471 11.8206 1.76471 11.4473 1.76471 10.7005Z" stroke="currentColor" stroke-width="1.5" stroke-linecap="round" stroke-linejoin="round"/>
</g>
<defs>
<clipPath id="clip0_6_5">
<rect width="13" height="12" fill="none" transform="translate(1 1.5)"/>
</clipPath>
</defs>
</svg>
