<svg width="15" height="15" viewBox="0 0 15 15" fill="none" xmlns="http://www.w3.org/2000/svg">
<path d="M3.22462 2.21012C2.94445 1.92996 2.49029 1.92996 2.21012 2.21012C1.92996 2.49027 1.92996 2.9445 2.21012 3.22467L3.22462 2.21012ZM6.99275 8.00725C7.27291 8.28742 7.72707 8.28742 8.00723 8.00725C8.2874 7.72709 8.2874 7.27293 8.00723 6.99277L6.99275 8.00725ZM8.00723 6.99277C7.72707 6.7126 7.27291 6.7126 6.99275 6.99277C6.71258 7.27293 6.71258 7.72709 6.99275 8.00725L8.00723 6.99277ZM11.7753 12.7899C12.0555 13.07 12.5097 13.07 12.7899 12.7899C13.07 12.5097 13.07 12.0555 12.7899 11.7754L11.7753 12.7899ZM8.00723 8.00725C8.2874 7.72709 8.2874 7.27293 8.00723 6.99277C7.72707 6.7126 7.27291 6.7126 6.99275 6.99277L8.00723 8.00725ZM2.21012 11.7754C1.92996 12.0555 1.92996 12.5097 2.21012 12.7899C2.49029 13.07 2.94445 13.07 3.22462 12.7899L2.21012 11.7754ZM6.99275 6.99277C6.71258 7.27293 6.71258 7.72709 6.99275 8.00725C7.27291 8.28742 7.72707 8.28742 8.00723 8.00725L6.99275 6.99277ZM12.7899 3.22467C13.07 2.9445 13.07 2.49027 12.7899 2.21012C12.5097 1.92996 12.0555 1.92996 11.7753 2.21012L12.7899 3.22467ZM2.21012 3.22467L6.99275 8.00725L8.00723 6.99277L3.22462 2.21012L2.21012 3.22467ZM6.99275 8.00725L11.7753 12.7899L12.7899 11.7754L8.00723 6.99277L6.99275 8.00725ZM6.99275 6.99277L2.21012 11.7754L3.22462 12.7899L8.00723 8.00725L6.99275 6.99277ZM8.00723 8.00725L12.7899 3.22467L11.7753 2.21012L6.99275 6.99277L8.00723 8.00725Z" fill="currentColor"/>
</svg>
