<svg width="15" height="15" viewBox="0 0 15 15" fill="none" xmlns="http://www.w3.org/2000/svg">
<path d="M3.5 7.5C3.5 7.74972 3.60226 7.96271 3.81465 8.15367L9.95034 13.7576C10.1155 13.9192 10.3358 14 10.5875 14C11.0988 14 11.5 13.6328 11.5 13.148C11.5 12.913 11.3977 12.7 11.2247 12.5385L5.69469 7.5L11.2247 2.46158C11.3977 2.29266 11.5 2.07966 11.5 1.84463C11.5 1.36723 11.0988 1 10.5875 1C10.3358 1 10.1155 1.08079 9.95034 1.24237L3.81465 6.84633C3.60226 7.03729 3.50786 7.25028 3.5 7.5Z" fill="currentColor"/>
</svg>
