<svg width="15" height="15" viewBox="0 0 15 15" fill="none" xmlns="http://www.w3.org/2000/svg">
<path d="M11.5 7.5C11.5 7.74972 11.3977 7.96271 11.1854 8.15367L5.04966 13.7576C4.88446 13.9192 4.66421 14 4.41249 14C3.90118 14 3.5 13.6328 3.5 13.148C3.5 12.913 3.60226 12.7 3.77532 12.5385L9.30531 7.5L3.77532 2.46158C3.60226 2.29266 3.5 2.07966 3.5 1.84463C3.5 1.36723 3.90118 1 4.41249 1C4.66421 1 4.88446 1.08079 5.04966 1.24237L11.1854 6.84633C11.3977 7.03729 11.4921 7.25028 11.5 7.5Z" fill="currentColor"/>
</svg>
