<svg width="15" height="15" viewBox="0 0 15 15" fill="none" xmlns="http://www.w3.org/2000/svg">
<path d="M7.5 11.5C7.74972 11.5 7.96271 11.3977 8.15367 11.1854L13.7576 5.04966C13.9192 4.88446 14 4.66421 14 4.41249C14 3.90118 13.6328 3.5 13.148 3.5C12.913 3.5 12.7 3.60226 12.5385 3.77532L7.5 9.30531L2.46158 3.77532C2.29266 3.60226 2.07966 3.5 1.84463 3.5C1.36723 3.5 1 3.90118 1 4.41249C1 4.66421 1.08079 4.88446 1.24237 5.04966L6.84633 11.1854C7.03729 11.3977 7.25028 11.4921 7.5 11.5Z" fill="currentColor"/>
</svg>
