<svg width="15" height="15" viewBox="0 0 15 15" fill="none" xmlns="http://www.w3.org/2000/svg">
<path d="M6.71705 8.28284L9.71377 5.28608M12.7793 3.45719L10.2498 11.6784C10.0231 12.4151 9.90957 12.7837 9.71407 12.9058C9.54452 13.0118 9.33449 13.0296 9.14984 12.9529C8.93681 12.8645 8.76403 12.5194 8.41913 11.8297L6.81698 8.6253C6.76225 8.51585 6.73486 8.46136 6.69831 8.41394C6.66585 8.37189 6.62844 8.33391 6.58639 8.30151C6.54001 8.26577 6.48643 8.23899 6.38187 8.18674L3.17011 6.58079C2.48043 6.23599 2.13557 6.06339 2.0472 5.85041C1.97055 5.66571 1.98803 5.45554 2.09399 5.28594C2.21618 5.09039 2.5847 4.97679 3.32169 4.75002L11.5428 2.22042C12.1222 2.04215 12.412 1.95308 12.6076 2.02492C12.7781 2.0875 12.9125 2.22176 12.9751 2.39223C13.0469 2.58784 12.9577 2.87751 12.7797 3.45634L12.7793 3.45719Z" stroke="currentColor" stroke-width="1.2" stroke-linecap="round" stroke-linejoin="round"/>
</svg>
