<svg width="15" height="15" viewBox="0 0 15 15" fill="none" xmlns="http://www.w3.org/2000/svg">
<path d="M1.5 8.02772V6.97224C1.5 6.34856 2.00974 5.83284 2.63943 5.83284C3.72489 5.83284 4.16866 5.06522 3.62294 4.12369C3.3111 3.58396 3.497 2.88231 4.04273 2.57047L5.08021 1.97676C5.55398 1.6949 6.16566 1.86282 6.44753 2.33659L6.5135 2.45052C7.05322 3.39206 7.94078 3.39206 8.4865 2.45052L8.55247 2.33659C8.83432 1.86282 9.446 1.6949 9.91976 1.97676L10.9573 2.57047C11.503 2.88231 11.6889 3.58396 11.377 4.12369C10.8314 5.06522 11.2751 5.83284 12.3606 5.83284C12.9842 5.83284 13.5 6.34256 13.5 6.97224V8.02772C13.5 8.6514 12.9902 9.16717 12.3606 9.16717C11.2751 9.16717 10.8314 9.93477 11.377 10.8763C11.6889 11.4221 11.503 12.1177 10.9573 12.4295L9.91976 13.0233C9.446 13.3051 8.83432 13.1372 8.55247 12.6634L8.4865 12.5495C7.94678 11.6079 7.05922 11.6079 6.5135 12.5495L6.44753 12.6634C6.16566 13.1372 5.55398 13.3051 5.08021 13.0233L4.04273 12.4295C3.497 12.1177 3.3111 11.4161 3.62294 10.8763C4.16866 9.93477 3.72489 9.16717 2.63943 9.16717C2.00974 9.16717 1.5 8.6514 1.5 8.02772Z" stroke="currentColor" stroke-width="1.5" stroke-miterlimit="10" stroke-linecap="round" stroke-linejoin="round"/>
<path d="M7.49979 9.18997C8.34867 9.18997 9.03678 8.45884 9.03678 7.55689C9.03678 6.65495 8.34867 5.92383 7.49979 5.92383C6.6509 5.92383 5.96278 6.65495 5.96278 7.55689C5.96278 8.45884 6.6509 9.18997 7.49979 9.18997Z" stroke="currentColor" stroke-width="1.5" stroke-miterlimit="10" stroke-linecap="round" stroke-linejoin="round"/>
</svg>
