<svg width="15" height="15" viewBox="0 0 15 15" fill="none" xmlns="http://www.w3.org/2000/svg">
<path d="M7.5 2.3C6.85169 2.3 6.22994 2.57393 5.77152 3.06152C5.3131 3.54911 5.05556 4.21043 5.05556 4.89999C5.05556 5.58955 5.3131 6.25087 5.77152 6.73846C6.22994 7.22606 6.85169 7.49998 7.5 7.49998C8.14831 7.49998 8.77006 7.22606 9.22848 6.73846C9.68687 6.25087 9.94442 5.58955 9.94442 4.89999C9.94442 4.21043 9.68687 3.54911 9.22848 3.06152C8.77006 2.57393 8.14831 2.3 7.5 2.3ZM3.83333 4.89999C3.83333 3.86565 4.21964 2.87367 4.90728 2.14228C5.59491 1.41089 6.52754 1 7.5 1C8.47246 1 9.40513 1.41089 10.0927 2.14228C10.7803 2.87367 11.1667 3.86565 11.1667 4.89999C11.1667 5.93433 10.7803 6.92631 10.0927 7.6577C9.40513 8.3891 8.47246 8.79998 7.5 8.79998C6.52754 8.79998 5.59491 8.3891 4.90728 7.6577C4.21964 6.92631 3.83333 5.93433 3.83333 4.89999ZM5.05556 11.4C4.56933 11.4 4.10301 11.6054 3.75919 11.9711C3.41538 12.3368 3.22222 12.8328 3.22222 13.3499C3.22222 13.5223 3.15784 13.6877 3.04323 13.8096C2.92863 13.9315 2.77319 14 2.61111 14C2.44903 14 2.2936 13.9315 2.17899 13.8096C2.06438 13.6877 2 13.5223 2 13.3499C2 12.4881 2.32192 11.6614 2.89495 11.0519C3.46798 10.4424 4.24517 10.1 5.05556 10.1H9.94442C10.7548 10.1 11.532 10.4424 12.105 11.0519C12.6781 11.6614 13 12.4881 13 13.3499C13 13.5223 12.9356 13.6877 12.821 13.8096C12.7064 13.9315 12.551 14 12.3889 14C12.2268 14 12.0714 13.9315 11.9568 13.8096C11.8421 13.6877 11.7778 13.5223 11.7778 13.3499C11.7778 12.8328 11.5846 12.3368 11.2408 11.9711C10.897 11.6054 10.4307 11.4 9.94442 11.4H5.05556Z" fill="currentColor"/>
</svg>
